<?xml version="1.0" encoding="UTF-8" standalone="no"?>
<!-- Created with Inkscape (http://www.inkscape.org/) -->

<svg
   width="1024"
   height="1024"
   viewBox="0 0 270.93333 270.93333"
   version="1.1"
   id="svg1"
   inkscape:version="1.3.2 (091e20e, 2023-11-25, custom)"
   sodipodi:docname="visca-recorder-logo.svg"
   xml:space="preserve"
   xmlns:inkscape="http://www.inkscape.org/namespaces/inkscape"
   xmlns:sodipodi="http://sodipodi.sourceforge.net/DTD/sodipodi-0.dtd"
   xmlns="http://www.w3.org/2000/svg"
   xmlns:svg="http://www.w3.org/2000/svg"><sodipodi:namedview
     id="namedview1"
     pagecolor="#ffffff"
     bordercolor="#666666"
     borderopacity="1.0"
     inkscape:showpageshadow="2"
     inkscape:pageopacity="0.0"
     inkscape:pagecheckerboard="0"
     inkscape:deskcolor="#d1d1d1"
     inkscape:document-units="px"
     showgrid="false"
     inkscape:zoom="0.34609638"
     inkscape:cx="-143.02374"
     inkscape:cy="377.0626"
     inkscape:window-width="1920"
     inkscape:window-height="991"
     inkscape:window-x="-9"
     inkscape:window-y="-9"
     inkscape:window-maximized="1"
     inkscape:current-layer="layer3" /><defs
     id="defs1" /><g
     inkscape:groupmode="layer"
     id="layer2"
     inkscape:label="background"><rect
       style="fill:#000000;stroke:none;stroke-width:0.261014"
       id="rect2"
       width="270.93332"
       height="270.93332"
       x="0"
       y="0" /></g><g
     inkscape:label="recorder-icon"
     inkscape:groupmode="layer"
     id="layer1"><path
       d="M 191.91124,118.53312 V 79.022073 A 11.288888,11.288888 0 0 0 180.62207,67.733333 H 45.155406 a 11.288888,11.288888 0 0 0 -11.28874,11.28874 V 191.91082 a 11.288888,11.288888 0 0 0 11.28874,11.28917 H 180.62207 a 11.288888,11.288888 0 0 0 11.28917,-11.28917 v -39.51104 l 45.15542,45.15584 V 73.377703 Z"
       id="path1"
       style="stroke-width:11.2888;fill:#ffffff;stroke:none"
       inkscape:label="path1" /></g><g
     inkscape:groupmode="layer"
     id="layer3"
     inkscape:label="text-vr"
     transform="translate(-11.1125)"><rect
       style="fill:#000000;stroke:none;stroke-width:0.198437"
       id="rect1"
       width="101.6"
       height="101.6"
       x="73.025002"
       y="84.666664" /><path
       d="m 71.143613,67.733333 c -8.353847,0 -15.051947,6.773193 -15.051947,15.05166 V 188.14806 a 15.051852,15.051852 0 0 0 15.051947,15.05195 H 176.50638 a 15.051852,15.051852 0 0 0 15.05195,-15.05195 V 82.784993 A 15.051852,15.051852 0 0 0 176.50638,67.733333 H 71.143613 m 7.525833,45.155557 h 11.288747 l 7.52611,25.81391 7.525827,-25.81391 h 11.28903 l -13.17063,45.15556 H 91.839793 L 78.669446,112.88889 m 52.681384,0 h 26.3407 c 6.39715,0 11.28903,4.89188 11.28903,11.28875 v 7.52612 c 0,4.51555 -3.01028,8.65479 -6.77347,10.53611 l 6.77347,15.80458 h -11.28903 l -6.39688,-15.05194 h -8.65479 v 15.05194 h -11.28903 v -45.15556 m 11.28903,11.28875 v 7.52612 h 15.05167 v -7.52612 z"
       id="path1-5"
       style="fill:#ffffff;stroke:none;stroke-width:7.52593"
       inkscape:label="path1-5" /></g></svg>
